<?xml version="1.0" encoding="UTF-8"?>
<svg version="1.1" xmlns="http://www.w3.org/2000/svg" width="512" height="512">
<path d="M0 0 C41.68756078 -1.47057346 86.68137767 25.42270904 116.26464844 52.82714844 C132.66809029 68.36545387 143.13434281 89.81431671 143.91015625 112.50390625 C144.26527239 132.10407766 141.74710604 150.26080751 135.51513672 168.8684082 C135.26135254 169.63886475 135.00756836 170.40932129 134.74609375 171.203125 C134.51494873 171.8736792 134.28380371 172.5442334 134.0456543 173.23510742 C133.59230537 175.56995805 133.85098308 176.93704923 134.671875 179.16015625 C136.92401253 181.8155699 136.92401253 181.8155699 139.734375 184.47265625 C140.23388672 184.96193604 140.73339844 185.45121582 141.24804688 185.95532227 C143.9749446 188.60477119 146.7672134 191.14590446 149.671875 193.59765625 C154.65569799 197.85933346 158.9384447 202.77459464 163.3046875 207.64892578 C164.56556725 209.04264822 165.85201714 210.41312362 167.140625 211.78125 C174.036859 219.13648658 180.12324124 227.01395433 186.13623047 235.09814453 C187.51420858 236.9484471 188.90620643 238.78720902 190.30078125 240.625 C202.06541391 256.35395453 211.28855722 273.59268065 217.671875 292.16015625 C217.9090625 292.82756836 218.14625 293.49498047 218.390625 294.18261719 C223.73882292 309.72581739 225.02405346 331.08710601 217.671875 346.16015625 C208.72848437 363.1639192 193.8228322 373.06305527 175.72705078 378.77392578 C120.3060416 394.87091912 58.20334247 376.82954915 5.671875 358.16015625 C4.60984863 357.78358887 3.54782227 357.40702148 2.45361328 357.01904297 C-57.61797621 335.4667983 -114.73776208 302.96681793 -165.328125 264.16015625 C-165.96588867 263.67256836 -166.60365234 263.18498047 -167.26074219 262.68261719 C-178.48866138 254.06693168 -189.32798921 244.99427964 -199.7902832 235.46289062 C-201.38501769 234.01589345 -202.98624088 232.57598279 -204.59667969 231.14648438 C-211.06963832 225.39454367 -217.26621934 219.40529403 -223.390625 213.28515625 C-224.31939453 212.36863281 -225.24816406 211.45210937 -226.20507812 210.5078125 C-232.35501447 204.37082339 -237.91529198 197.94978698 -243.328125 191.16015625 C-244.2031353 190.1207949 -245.08324481 189.08565866 -245.97265625 188.05859375 C-272.26552825 157.45463824 -293.24821698 120.51595896 -290.328125 79.16015625 C-289.14568571 70.5931562 -285.20722429 63.1891489 -280.328125 56.16015625 C-279.626875 55.14953125 -278.925625 54.13890625 -278.203125 53.09765625 C-263.43057201 36.60086206 -238.7749252 29.50591567 -217.328125 28.16015625 C-176.98388654 26.73600832 -138.46483906 32.92834702 -100.04101562 45.04711914 C-99.35099457 45.26143082 -98.66097351 45.47574249 -97.95004272 45.69654846 C-96.08514492 46.27769993 -94.2242939 46.87179275 -92.36376953 47.46679688 C-89.4267007 48.13764097 -88.05577655 48.33715658 -85.328125 47.16015625 C-83.22829397 45.16583371 -83.22829397 45.16583371 -81.203125 42.66015625 C-61.92977667 20.60218454 -34.19288375 2.79643082 -4.53125 0.2890625 C-3.02034716 0.20065861 -1.50991841 0.10387023 0 0 Z " fill="#F6D988" transform="translate(290.328125,63.83984375)"/>
<path d="M0 0 C14.09947046 4.20839708 26.02412281 22.08922411 32.8671875 34.34375 C47.06950671 63.45497147 43.85781054 96.80651207 33.84326172 126.70825195 C33.46258545 127.86393677 33.46258545 127.86393677 33.07421875 129.04296875 C32.84307373 129.71352295 32.61192871 130.38407715 32.3737793 131.07495117 C31.92043037 133.4098018 32.17910808 134.77689298 33 137 C35.25213753 139.65541365 35.25213753 139.65541365 38.0625 142.3125 C38.56201172 142.80177979 39.06152344 143.29105957 39.57617188 143.79516602 C42.3030696 146.44461494 45.0953384 148.98574821 48 151.4375 C52.98382299 155.69917721 57.2665697 160.61443839 61.6328125 165.48876953 C62.89369225 166.88249197 64.18014214 168.25296737 65.46875 169.62109375 C72.364984 176.97633033 78.45136624 184.85379808 84.46435547 192.93798828 C85.84233358 194.78829085 87.23433143 196.62705277 88.62890625 198.46484375 C100.39353891 214.19379828 109.61668222 231.4325244 116 250 C116.2371875 250.66741211 116.474375 251.33482422 116.71875 252.02246094 C121.81028619 266.819738 122.96905845 286.4776575 117.33203125 301.27734375 C114.94275897 306.16098826 112.2506657 310.64196466 109 315 C108.29037109 315.96292969 108.29037109 315.96292969 107.56640625 316.9453125 C104.94794383 320.01625709 102.8424561 321.23166369 98.85546875 321.828125 C94.10488167 322.68954981 89.54678391 323.9760262 84.9453125 325.41796875 C84.23113663 325.64053848 83.51696075 325.86310822 82.78114319 326.09242249 C79.80205068 327.02457311 76.8253944 327.96403869 73.8515625 328.9128418 C71.65633279 329.61095713 69.45747373 330.29646753 67.2578125 330.98046875 C66.58799347 331.19809372 65.91817444 331.41571869 65.22805786 331.63993835 C61.82805148 332.68914907 59.37600545 333.3671383 56 332 C56 330.68 56 329.36 56 328 C63.93567663 325.00968526 71.95456642 322.36021214 80.05517578 319.85302734 C82.02668486 319.24172588 83.99576394 318.62298222 85.96484375 318.00390625 C87.83849609 317.42189453 87.83849609 317.42189453 89.75 316.828125 C90.87921875 316.4765332 92.0084375 316.12494141 93.171875 315.76269531 C96 315 96 315 99 315 C98.566875 314.02417969 98.13375 313.04835938 97.6875 312.04296875 C97.1247129 310.7579382 96.56222866 309.47277498 96 308.1875 C95.71382813 307.54490234 95.42765625 306.90230469 95.1328125 306.24023438 C93.86288959 303.32243531 93 301.21734286 93 298 C89.37 298.99 85.74 299.98 82 301 C82.680625 302.2375 83.36125 303.475 84.0625 304.75 C86.09326923 308.44230769 86.09326923 308.44230769 85.62109375 311.265625 C85.41613281 311.83796875 85.21117187 312.4103125 85 313 C83.35 313.33 81.7 313.66 80 314 C79.32845067 312.71086513 78.66291141 311.41859796 78 310.125 C77.62875 309.40570313 77.2575 308.68640625 76.875 307.9453125 C76 306 76 306 76 304 C72.20607008 305.03353474 68.41496311 306.07701365 64.625 307.125 C63.49352539 307.43759766 62.36205078 307.75019531 61.19628906 308.07226562 C53.55209525 310.21186186 46.01498205 312.54349063 38.57275391 315.30908203 C34.66211955 316.70311149 32.00144087 317.3027947 28 316 C28 314.68 28 313.36 28 312 C33.76282581 309.3196159 39.67256216 307.49119149 45.75634766 305.67578125 C48.47022766 304.85836886 51.17837904 304.02308362 53.88671875 303.1875 C55.9869654 302.54162191 58.08722591 301.89578885 60.1875 301.25 C61.21617187 300.93192383 62.24484375 300.61384766 63.3046875 300.28613281 C64.75294922 299.84285645 64.75294922 299.84285645 66.23046875 299.390625 C67.10082764 299.12282227 67.97118652 298.85501953 68.86791992 298.57910156 C71 298 71 298 73 298 C72.6390625 297.15695312 72.278125 296.31390625 71.90625 295.4453125 C71.4421875 294.34960938 70.978125 293.25390625 70.5 292.125 C70.0359375 291.03445313 69.571875 289.94390625 69.09375 288.8203125 C68 286 68 286 68 284 C64.7 284.99 61.4 285.98 58 287 C58.350625 288.051875 58.70125 289.10375 59.0625 290.1875 C59.94970527 293.7954681 60.05262882 295.52632489 59 299 C57.35 299 55.7 299 54 299 C52.68 296.03 51.36 293.06 50 290 C43.80946842 291.64619127 37.66408339 293.38570609 31.5390625 295.26171875 C30.57259796 295.557332 30.57259796 295.557332 29.58660889 295.85891724 C26.91991805 296.67510724 24.25358399 297.49222715 21.59033203 298.31958008 C19.61679472 298.93163851 17.64073182 299.53486452 15.6640625 300.13671875 C13.92310303 300.67365356 13.92310303 300.67365356 12.14697266 301.22143555 C9.27245801 301.93259359 6.94055538 302.16435961 4 302 C3.67 300.68 3.34 299.36 3 298 C6.02578754 295.98280831 8.36678387 295.16236379 11.83203125 294.13671875 C12.99299316 293.78915527 14.15395508 293.4415918 15.35009766 293.08349609 C16.55456543 292.72594238 17.7590332 292.36838867 19 292 C21.29623834 291.3003573 23.5918219 290.5985617 25.88671875 289.89453125 C29.32968191 288.84048222 32.7726588 287.78653293 36.21679688 286.73632812 C37.32474609 286.39666016 38.43269531 286.05699219 39.57421875 285.70703125 C40.57026123 285.4025708 41.56630371 285.09811035 42.5925293 284.78442383 C44.97688851 284.07327202 44.97688851 284.07327202 47 283 C45.02 278.38 43.04 273.76 41 269 C37.7 269.33 34.4 269.66 31 270 C31.66 271.381875 32.32 272.76375 33 274.1875 C34.5329722 277.6096985 35.49168274 280.18945876 35 284 C33.35 284.33 31.7 284.66 30 285 C27.42243286 281.1336493 26.21023788 277.46735633 25 273 C21.0099065 274.18444406 17.02070808 275.37184535 13.03240967 276.56231689 C11.63983597 276.97790214 10.24713638 277.39306578 8.85430908 277.80780029 C0.03127404 280.43737721 -8.73692185 283.14807924 -17.3828125 286.3203125 C-20.08863594 287.02301888 -21.41673078 286.97645105 -24 286 C-24 284.68 -24 283.36 -24 282 C-17.51752236 278.75876118 -11.0015598 276.79528541 -4.03125 274.93798828 C2.40874006 273.2093734 8.67682732 271.14273543 14.9609375 268.91796875 C18 268 18 268 22 268 C21.6390625 267.16855469 21.278125 266.33710938 20.90625 265.48046875 C20.4421875 264.39378906 19.978125 263.30710937 19.5 262.1875 C18.80390625 260.56908203 18.80390625 260.56908203 18.09375 258.91796875 C17 256 17 256 17 253 C11.06 254.98 11.06 254.98 5 257 C5.66 258.98 6.32 260.96 7 263 C7.125 265.875 7.125 265.875 7 268 C5.35 268.33 3.7 268.66 2 269 C-0.21156817 265.63457018 -1.31620454 262.95008059 -2 259 C-3.86918091 259.59856812 -3.86918091 259.59856812 -5.77612305 260.20922852 C-10.40360617 261.68768263 -15.03584745 263.15070452 -19.66967773 264.60913086 C-21.67393842 265.24230277 -23.67688716 265.87964337 -25.6784668 266.52124023 C-28.55702698 267.44315073 -31.43998414 268.34992897 -34.32421875 269.25390625 C-35.21711105 269.54342667 -36.11000336 269.83294708 -37.029953 270.13124084 C-44.72521543 272.51486955 -44.72521543 272.51486955 -49 271 C-48.73852539 269.09350586 -48.73852539 269.09350586 -48 267 C-46.35327148 266.09594727 -46.35327148 266.09594727 -44.18359375 265.50390625 C-43.36874512 265.26559082 -42.55389648 265.02727539 -41.71435547 264.78173828 C-40.81861816 264.52376465 -39.92288086 264.26579102 -39 264 C-37.07095073 263.35209794 -35.14527008 262.69410024 -33.22265625 262.02734375 C-31.16929918 261.3306456 -29.11591334 260.63403228 -27.0625 259.9375 C-26.04220703 259.58623047 -25.02191406 259.23496094 -23.97070312 258.87304688 C-17.68260963 256.75026356 -11.53605079 255.16049476 -5 254 C-6.98 249.38 -8.96 244.76 -11 240 C-15.455 240.99 -15.455 240.99 -20 242 C-19.67 242.86625 -19.34 243.7325 -19 244.625 C-18.01268659 247.95718275 -17.83579026 250.55159538 -18 254 C-19.8125 254.6875 -19.8125 254.6875 -22 255 C-24.92127199 252.97758093 -25.92487068 250.30809022 -27 247 C-27 246.01 -27 245.02 -27 244 C-27.7892688 244.27094482 -27.7892688 244.27094482 -28.59448242 244.54736328 C-38.83604485 248.04858201 -49.10355458 251.42288993 -59.5 254.4375 C-60.3768042 254.69611816 -61.2536084 254.95473633 -62.15698242 255.22119141 C-66.1867777 256.36986217 -69.76280478 257.35599386 -74 257 C-74.33 255.68 -74.66 254.36 -75 253 C-68.53112521 249.85749752 -61.95826113 247.63228469 -55.06494141 245.61230469 C-52.64646028 244.89516699 -50.23547869 244.15511165 -47.82421875 243.4140625 C-46.00786177 242.85921369 -44.19145553 242.30452609 -42.375 241.75 C-41.49739014 241.47945801 -40.61978027 241.20891602 -39.71557617 240.93017578 C-38.47578003 240.55481689 -38.47578003 240.55481689 -37.2109375 240.171875 C-36.47149902 239.9459668 -35.73206055 239.72005859 -34.97021484 239.48730469 C-33 239 -33 239 -30 239 C-30.99 236.525 -30.99 236.525 -32 234 C-32.8657666 234.01047363 -33.7315332 234.02094727 -34.62353516 234.03173828 C-37.90758042 234.06629797 -41.19142606 234.09112663 -44.47558594 234.10986328 C-45.88349501 234.11977813 -47.29138433 234.13331412 -48.69921875 234.15087891 C-98.61660857 234.75701864 -149.66307083 208.50337708 -188 178 C-188.85335937 177.33742188 -189.70671875 176.67484375 -190.5859375 175.9921875 C-196.63061712 171.24943887 -202.40380734 166.2638221 -208 161 C-208.56912109 160.46487793 -209.13824219 159.92975586 -209.72460938 159.37841797 C-222.92130151 146.86659105 -233.770664 133.80666148 -241 117 C-241.53947266 115.7625 -241.53947266 115.7625 -242.08984375 114.5 C-244.01482974 109.24842533 -244.32191741 104.04130795 -244.4375 98.5 C-244.47121704 97.46782349 -244.47121704 97.46782349 -244.50561523 96.41479492 C-244.45503249 85.41239873 -238.09744363 76.38866449 -232.4375 67.375 C-231.71849236 66.21999903 -230.99966275 65.06488721 -230.28100586 63.90966797 C-224.77474455 55.09304357 -219.08594627 46.42725415 -213 38 C-212.37955811 37.13834229 -212.37955811 37.13834229 -211.74658203 36.25927734 C-207.80531354 30.81583579 -203.8489197 25.68841539 -199 21 C-198.91363281 21.71542969 -198.82726562 22.43085938 -198.73828125 23.16796875 C-196.2120175 41.08358229 -187.80079598 55.55653322 -176 69 C-175.14277344 69.9796875 -174.28554687 70.959375 -173.40234375 71.96875 C-146.62566758 102.09129489 -110.10168794 124.58646444 -73.25 140.1875 C-72.35740479 140.57454102 -71.46480957 140.96158203 -70.54516602 141.36035156 C-69.68979248 141.70936523 -68.83441895 142.05837891 -67.953125 142.41796875 C-67.21223633 142.72500732 -66.47134766 143.0320459 -65.70800781 143.34838867 C-61.80523123 144.28748989 -57.99449357 144.12379629 -54 144 C-54.45439453 142.78417236 -54.90878906 141.56834473 -55.37695312 140.31567383 C-57.06241064 135.7993316 -58.73714719 131.27907651 -60.40869141 126.75756836 C-61.13331462 124.80205832 -61.86083177 122.84761809 -62.59130859 120.89428711 C-63.64144328 118.08464104 -64.6810731 115.27129827 -65.71875 112.45703125 C-66.04685669 111.58601273 -66.37496338 110.7149942 -66.7130127 109.81758118 C-67.01332397 108.997108 -67.31363525 108.17663483 -67.62304688 107.33129883 C-67.88952026 106.61404129 -68.15599365 105.89678375 -68.43054199 105.15779114 C-69.07873613 102.70165294 -69.09764644 100.5294409 -69 98 C-66.525 97.505 -66.525 97.505 -64 97 C-61.30694451 102.21298599 -58.97223811 107.37799176 -56.984375 112.89453125 C-56.59333588 113.96558357 -56.59333588 113.96558357 -56.19439697 115.05827332 C-55.65099579 116.55060369 -55.10997881 118.04380427 -54.57128906 119.5378418 C-53.74485409 121.82675221 -52.90807526 124.11169907 -52.0703125 126.39648438 C-51.5410479 127.85394212 -51.0123803 129.31161682 -50.484375 130.76953125 C-50.23443787 131.45078568 -49.98450073 132.1320401 -49.72698975 132.8339386 C-48.6995596 135.70210903 -48 137.92706608 -48 141 C-42.39 139.02 -36.78 137.04 -31 135 C-31.99 131.37 -32.98 127.74 -34 124 C-35.5675 124.515625 -37.135 125.03125 -38.75 125.5625 C-42.27746562 126.72285053 -44.45332822 127.25127906 -48 126 C-48 124.68 -48 123.36 -48 122 C-41.5 119 -41.5 119 -37 119 C-38.03836209 115.99884642 -39.08096769 112.99918557 -40.125 110 C-40.59498413 108.64733032 -40.59498413 108.64733032 -41.07446289 107.26733398 C-42.59471704 102.91734536 -44.13949661 98.58348839 -45.80078125 94.28515625 C-46.07712402 93.56908203 -46.3534668 92.85300781 -46.63818359 92.11523438 C-47.15849622 90.77901306 -47.68581888 89.44549333 -48.22119141 88.11523438 C-49.58545631 84.61059774 -50.29294364 81.76539746 -50 78 C-47.525 77.505 -47.525 77.505 -45 77 C-41.18645873 84.06211347 -38.59582767 91.42528974 -36 99 C-32.36004956 99 -28.99538449 97.1660063 -25.62890625 95.875 C-23 95 -23 95 -20 95 C-20.32798584 94.1529248 -20.65597168 93.30584961 -20.99389648 92.43310547 C-22.21541697 89.27027472 -23.43178191 86.10555889 -24.64477539 82.93945312 C-25.16943416 81.57311048 -25.6960982 80.207536 -26.22485352 78.84277344 C-26.98730588 76.87376355 -27.74235226 74.90204575 -28.49609375 72.9296875 C-28.95169678 71.74616699 -29.4072998 70.56264648 -29.87670898 69.34326172 C-30.94008843 66.17831536 -31.729831 63.32836131 -32 60 C-31.01 59.01 -31.01 59.01 -30 58 C-28.04296875 58.015625 -28.04296875 58.015625 -26 59 C-24.55078125 61.546875 -24.55078125 61.546875 -23.3125 64.75 C-22.89613281 65.79671875 -22.47976563 66.8434375 -22.05078125 67.921875 C-21 71 -21 71 -20 76 C-16.7 75.34 -13.4 74.68 -10 74 C-10.42933838 72.90534424 -10.85867676 71.81068848 -11.30102539 70.68286133 C-12.8923458 66.61568885 -14.46684621 62.54217797 -16.03637695 58.46655273 C-16.71768317 56.70436386 -17.4035229 54.94392073 -18.09399414 53.18530273 C-19.08639876 50.65534971 -20.06226439 48.11954126 -21.03515625 45.58203125 C-21.34655045 44.79850784 -21.65794464 44.01498444 -21.97877502 43.2077179 C-23.53036619 39.11027882 -24.51108982 36.32978106 -23 32 C-21.35 32 -19.7 32 -18 32 C-16.6582322 35.26743656 -15.32805641 38.53946908 -14 41.8125 C-13.6184375 42.74126953 -13.236875 43.67003906 -12.84375 44.62695312 C-12.4828125 45.51962891 -12.121875 46.41230469 -11.75 47.33203125 C-11.41484375 48.15421143 -11.0796875 48.9763916 -10.734375 49.82348633 C-10 52 -10 52 -10 55 C-8.88625 54.505 -8.88625 54.505 -7.75 54 C-5 53 -5 53 -1 53 C-1.30400475 52.22405487 -1.30400475 52.22405487 -1.614151 51.43243408 C-3.71969136 46.05185887 -5.80974445 40.66545517 -7.89086914 35.27539062 C-8.66977969 33.26408419 -9.45263815 31.25430205 -10.23950195 29.24609375 C-11.36928872 26.3606825 -12.48480457 23.47010292 -13.59765625 20.578125 C-14.13036888 19.23104462 -14.13036888 19.23104462 -14.67384338 17.85675049 C-14.99425095 17.01618103 -15.31465851 16.17561157 -15.64477539 15.30957031 C-15.93123428 14.57232727 -16.21769318 13.83508423 -16.51283264 13.07550049 C-17.07193708 10.6935233 -16.77503027 9.29400383 -16 7 C-14.68 6.67 -13.36 6.34 -12 6 C-8.74283584 9.71014726 -7.32614654 13.92283226 -5.64453125 18.484375 C-5.18478157 19.70776581 -5.18478157 19.70776581 -4.71574402 20.95587158 C-3.74184862 23.55166167 -2.77707016 26.1507322 -1.8125 28.75 C-1.15229195 30.51454724 -0.49149132 32.27887289 0.16992188 34.04296875 C1.78682572 38.35944157 3.3955636 42.67887834 5 47 C5.66 43.37 6.32 39.74 7 36 C6.01 35.67 5.02 35.34 4 35 C4.33 33.68 4.66 32.36 5 31 C5.66 31 6.32 31 7 31 C5.40615439 14.99254676 5.40615439 14.99254676 0 0 Z " fill="#D3A475" transform="translate(392,106)"/>
<path d="M0 0 C0.83934082 0.50112305 1.67868164 1.00224609 2.54345703 1.51855469 C5.04829056 3.02499825 7.52621567 4.56820249 10 6.125 C11.13973267 6.8061084 11.13973267 6.8061084 12.30249023 7.50097656 C17.90241836 11.12540117 19.50104891 14.60870199 21 21 C21.37125 22.03125 21.7425 23.0625 22.125 24.125 C24.12790446 30.70597179 24.1233068 37.19072465 24 44 C23.01 44.495 23.01 44.495 22 45 C22 45.99 22 46.98 22 48 C22.66 48.33 23.32 48.66 24 49 C23.67 53.62 23.34 58.24 23 63 C21.37329079 60.55993619 20.44326687 58.78389301 19.45947266 56.09521484 C19.02859848 54.92918228 19.02859848 54.92918228 18.58901978 53.73959351 C18.28378387 52.90513702 17.97854797 52.07068054 17.6640625 51.2109375 C17.00593174 49.44764649 16.34705495 47.68463379 15.6875 45.921875 C14.6510665 43.14163229 13.61949993 40.35995739 12.60058594 37.57324219 C11.61516079 34.88442575 10.61013821 32.20364078 9.6015625 29.5234375 C9.30037506 28.68493256 8.99918762 27.84642761 8.68887329 26.98251343 C8.24854263 25.82593735 8.24854263 25.82593735 7.79931641 24.64599609 C7.54775787 23.96443451 7.29619934 23.28287292 7.03701782 22.58065796 C6.09361675 20.79128024 6.09361675 20.79128024 3.88754272 20.27212524 C3.26465363 20.18232391 2.64176453 20.09252258 2 20 C0.93217212 23.21679524 1.0488922 24.94966076 2.26342773 28.09423828 C2.56381454 28.88831085 2.86420135 29.68238342 3.1736908 30.5005188 C3.50695877 31.34855072 3.84022675 32.19658264 4.18359375 33.0703125 C4.51794937 33.94775116 4.85230499 34.82518982 5.1967926 35.72921753 C6.26675004 38.53187969 7.35143098 41.32854636 8.4375 44.125 C9.51733041 46.92953621 10.59406666 49.73521339 11.66749573 52.54220581 C12.33646122 54.28892393 13.00964412 56.03403363 13.68736267 57.77737427 C13.99090164 58.56514252 14.29444061 59.35291077 14.60717773 60.16455078 C14.87666733 60.85864044 15.14615692 61.5527301 15.42381287 62.26785278 C16 64 16 64 16 66 C11.545 66.99 11.545 66.99 7 68 C5.66128359 64.54372619 4.32994608 61.08465703 3 57.625 C2.6184375 56.64015625 2.236875 55.6553125 1.84375 54.640625 C1.30234375 53.22910156 1.30234375 53.22910156 0.75 51.7890625 C0.41484375 50.91975098 0.0796875 50.05043945 -0.265625 49.15478516 C-1 47 -1 47 -1 45 C-3.475 45.495 -3.475 45.495 -6 46 C-5.37874803 50.7699827 -4.01651345 55.02256804 -2.27734375 59.48046875 C-2.01240616 60.17513748 -1.74746857 60.86980621 -1.47450256 61.58552551 C-0.63412527 63.78825405 0.21336408 65.98813433 1.0625 68.1875 C1.91496696 70.39766187 2.76568953 72.60839975 3.61021423 74.8216095 C4.13412114 76.19458038 4.66257127 77.56582826 5.19606018 78.93510437 C6.28357785 81.78474675 7 83.91995029 7 87 C3.38026598 88.31626692 0.90432869 89 -3 89 C-3.38671875 87.85660156 -3.7734375 86.71320313 -4.171875 85.53515625 C-4.69707164 84.04397294 -5.22315972 82.55310339 -5.75 81.0625 C-6.00265625 80.30775391 -6.2553125 79.55300781 -6.515625 78.77539062 C-7.35589773 76.32174266 -7.35589773 76.32174266 -9 73 C-11.04057745 72.22476734 -11.04057745 72.22476734 -13 72 C-14.02978696 75.82040849 -13.98893066 77.94546836 -12.453125 81.58203125 C-12.1025 82.43216797 -11.751875 83.28230469 -11.390625 84.15820312 C-11.01421875 85.03412109 -10.6378125 85.91003906 -10.25 86.8125 C-9.52531072 88.54787202 -8.80134316 90.28354562 -8.078125 92.01953125 C-7.72685547 92.85693848 -7.37558594 93.6943457 -7.01367188 94.55712891 C-3 104.22976879 -3 104.22976879 -3 108 C-3.98742187 108.34933594 -4.97484375 108.69867188 -5.9921875 109.05859375 C-7.28648214 109.51816214 -8.58075167 109.97780123 -9.875 110.4375 C-10.85146484 110.78264648 -10.85146484 110.78264648 -11.84765625 111.13476562 C-15.48434022 112.42160116 -15.48434022 112.42160116 -19 114 C-19.23710693 113.37432129 -19.47421387 112.74864258 -19.71850586 112.10400391 C-20.7904212 109.27725731 -21.86394047 106.45112254 -22.9375 103.625 C-23.31068359 102.64015625 -23.68386719 101.6553125 -24.06835938 100.640625 C-24.42607422 99.69960937 -24.78378906 98.75859375 -25.15234375 97.7890625 C-25.6472229 96.48509521 -25.6472229 96.48509521 -26.15209961 95.15478516 C-26.96386752 92.99839517 -26.96386752 92.99839517 -28 91 C-29.65 91 -31.3 91 -33 91 C-30.25686161 100.82158641 -26.70162577 110.27730999 -22.99829102 119.77148438 C-22.61213623 120.77630859 -22.22598145 121.78113281 -21.828125 122.81640625 C-21.4765332 123.71818604 -21.12494141 124.61996582 -20.76269531 125.54907227 C-20 128 -20 128 -20 132 C-23.63 132.99 -27.26 133.98 -31 135 C-30.67 136.32 -30.34 137.64 -30 139 C-29.39671875 138.855625 -28.7934375 138.71125 -28.171875 138.5625 C-27.37265625 138.376875 -26.5734375 138.19125 -25.75 138 C-24.96109375 137.814375 -24.1721875 137.62875 -23.359375 137.4375 C-21 137 -21 137 -17 137 C-15.02 142.445 -15.02 142.445 -13 148 C-18 150 -18 150 -23 152 C-23.87269531 152.37382812 -24.74539063 152.74765625 -25.64453125 153.1328125 C-28 154 -28 154 -31 154 C-31.37809814 152.94611084 -31.75619629 151.89222168 -32.14575195 150.80639648 C-33.5581418 146.87137308 -34.97335958 142.9373716 -36.3894043 139.00366211 C-37.00019444 137.30569459 -37.61023222 135.60745622 -38.21948242 133.90893555 C-39.0987374 131.45809319 -39.98075389 129.00825936 -40.86328125 126.55859375 C-41.13215652 125.80726669 -41.4010318 125.05593964 -41.67805481 124.28184509 C-43.3033792 119.78032944 -45.07324464 115.38128512 -47 111 C-48.65 111 -50.3 111 -52 111 C-48.94685091 121.4112827 -45.30014658 131.52286681 -41.47998047 141.67041016 C-40.73778584 143.64596458 -40.00144923 145.62362832 -39.265625 147.6015625 C-38.83024414 148.75994629 -38.39486328 149.91833008 -37.94628906 151.11181641 C-37 154 -37 154 -37 157 C-44.9901685 158.61118624 -49.91061294 157.04161841 -57.25 153.75 C-58.29631592 153.29544434 -59.34263184 152.84088867 -60.4206543 152.37255859 C-83.06167655 142.37335817 -104.20011092 129.83540076 -124 115 C-124.56493164 114.57928223 -125.12986328 114.15856445 -125.71191406 113.72509766 C-147.49941667 97.39367669 -168.71825081 77.72133957 -179 52 C-179.33902344 51.18789062 -179.67804688 50.37578125 -180.02734375 49.5390625 C-182.07609586 44.15754774 -183.56076988 38.6650166 -182 33 C-177.7892691 26.42756174 -172.34313642 21.01358015 -166.34375 16.046875 C-163.00425335 13.13038126 -159.88547958 10.00805898 -156.75 6.875 C-155.84556152 5.9770874 -155.84556152 5.9770874 -154.92285156 5.06103516 C-152.44594704 2.57653277 -150.12760877 0.16773574 -148 -2.62890625 C-145.46448113 -5.63488272 -142.51665492 -7.68662886 -139.25 -9.8125 C-138.2614502 -10.45771606 -138.2614502 -10.45771606 -137.25292969 -11.1159668 C-90.73915858 -40.87708299 -44.19531211 -26.90612732 0 0 Z " fill="#F6D988" transform="translate(375,93)"/>
<path d="M0 0 C0.33 0 0.66 0 1 0 C1.08636719 0.71542969 1.17273438 1.43085938 1.26171875 2.16796875 C3.7879825 20.08358229 12.19920402 34.55653322 24 48 C24.85722656 48.9796875 25.71445313 49.959375 26.59765625 50.96875 C61.33759492 90.04960364 114.79907003 121.08951956 165.8125 131.6875 C166.79669922 131.89955078 167.78089844 132.11160156 168.79492188 132.33007812 C187.80934383 136.37271512 205.81915968 136.67328242 224 129 C221.94761954 135.6078838 219.43363802 141.89497008 216.5625 148.1875 C216.13146973 149.13367188 215.70043945 150.07984375 215.25634766 151.0546875 C210.74051986 160.80436775 205.64010941 170.20472543 200.36914062 179.56298828 C199.1219366 181.78295807 197.89349729 184.01197979 196.671875 186.24609375 C189.42408549 199.40673108 182.59701968 207.04841451 167.75 211.375 C125.8586646 221.6652566 78.05367428 198.99572611 42.96875 178.20361328 C32.24826222 171.68303014 21.82373536 164.81640863 12 157 C11.14664063 156.33742188 10.29328125 155.67484375 9.4140625 154.9921875 C3.36938288 150.24943887 -2.40380734 145.2638221 -8 140 C-8.56912109 139.46487793 -9.13824219 138.92975586 -9.72460938 138.37841797 C-22.92130151 125.86659105 -33.770664 112.80666148 -41 96 C-41.53947266 94.7625 -41.53947266 94.7625 -42.08984375 93.5 C-44.01482974 88.24842533 -44.32191741 83.04130795 -44.4375 77.5 C-44.47121704 76.46782349 -44.47121704 76.46782349 -44.50561523 75.41479492 C-44.45503249 64.41239873 -38.09744363 55.38866449 -32.4375 46.375 C-31.71849236 45.21999903 -30.99966275 44.06488721 -30.28100586 42.90966797 C-21.02400051 28.08735304 -11.20954814 13.43693136 0 0 Z " fill="#F42F02" transform="translate(192,127)"/>
<path d="M0 0 C0.69002106 0.21431168 1.38004211 0.42862335 2.0909729 0.64942932 C3.9558707 1.23058079 5.81672172 1.82467361 7.67724609 2.41967773 C10.61431493 3.09052183 11.98523907 3.29003744 14.71289062 2.11303711 C16.81272166 0.11871457 16.81272166 0.11871457 18.83789062 -2.38696289 C23.42527358 -7.6842071 28.41694719 -12.30967566 33.71289062 -16.88696289 C34.70289063 -16.39196289 34.70289063 -16.39196289 35.71289062 -15.88696289 C14.71289062 5.11303711 14.71289062 5.11303711 12.01806641 7.80517578 C-5.94606984 25.79024038 -19.24460651 47.68593384 -32.34960938 69.30053711 C-33.00566162 70.3764209 -33.66171387 71.45230469 -34.33764648 72.56079102 C-34.9513208 73.58221191 -35.56499512 74.60363281 -36.19726562 75.65600586 C-36.74519775 76.56374756 -37.29312988 77.47148926 -37.85766602 78.40673828 C-42.60790478 87.40014506 -42.89996388 99.42840392 -40.22460938 109.23803711 C-37.78430412 116.06141491 -34.45501008 122.60365211 -31.28710938 129.11303711 C-33.9628763 128.10686029 -35.06562018 127.57089164 -36.33398438 124.94897461 C-36.56601563 124.13686523 -36.79804688 123.32475586 -37.03710938 122.48803711 C-37.27945313 121.67077148 -37.52179688 120.85350586 -37.77148438 120.01147461 C-37.94164062 119.38499023 -38.11179688 118.75850586 -38.28710938 118.11303711 C-38.96064453 118.32919678 -39.63417969 118.54535645 -40.328125 118.76806641 C-45.77789265 120.51639422 -51.22887439 122.26080102 -56.68164062 123.99975586 C-60.55929615 125.23695216 -64.43268142 126.48489156 -68.29882812 127.75756836 C-69.69074864 128.2094115 -71.08267515 128.66123619 -72.47460938 129.11303711 C-74.25931641 129.70084961 -74.25931641 129.70084961 -76.08007812 130.30053711 C-79.28761024 131.113164 -81.99402639 131.27294402 -85.28710938 131.11303711 C-84.95710938 129.46303711 -84.62710938 127.81303711 -84.28710938 126.11303711 C-61.1621243 118.27816718 -61.1621243 118.27816718 -50.41210938 115.11303711 C-49.712229 114.90590088 -49.01234863 114.69876465 -48.29125977 114.48535156 C-43.55070033 113.11303711 -43.55070033 113.11303711 -41.28710938 113.11303711 C-43.76210938 106.67803711 -43.76210938 106.67803711 -46.28710938 100.11303711 C-49.75652484 100.57126179 -52.96105986 101.00435394 -56.28710938 102.11303711 C-55.93648437 102.99991211 -55.58585938 103.88678711 -55.22460938 104.80053711 C-54.26955336 108.17506837 -54.31559806 109.80989863 -55.28710938 113.11303711 C-56.60710937 113.44303711 -57.92710937 113.77303711 -59.28710938 114.11303711 C-62.12085818 110.90966889 -62.80766307 108.33216458 -63.28710938 104.11303711 C-63.83753906 104.33217773 -64.38796875 104.55131836 -64.95507812 104.77709961 C-74.02368123 108.23582265 -83.34249524 110.77828683 -92.68994141 113.36352539 C-94.46628191 113.87615609 -96.23295544 114.42319259 -97.98974609 114.99926758 C-98.86002441 115.28302246 -99.73030273 115.56677734 -100.62695312 115.85913086 C-101.40288818 116.12266357 -102.17882324 116.38619629 -102.97827148 116.65771484 C-105.69293454 117.19306925 -107.63099578 116.80855309 -110.28710938 116.11303711 C-110.00512695 114.2109375 -110.00512695 114.2109375 -109.28710938 112.11303711 C-106.59031274 110.90204556 -104.09484232 109.97363358 -101.28710938 109.11303711 C-100.18423584 108.75169678 -100.18423584 108.75169678 -99.05908203 108.38305664 C-96.74489884 107.62804999 -94.42390169 106.89878764 -92.09960938 106.17553711 C-91.27460937 105.91756348 -90.44960937 105.65958984 -89.59960938 105.39379883 C-87.94186741 104.8759156 -86.28383256 104.35896883 -84.62548828 103.84301758 C-82.50394365 103.18072708 -80.38528897 102.51012015 -78.26757812 101.83569336 C-76.54474609 101.29235352 -76.54474609 101.29235352 -74.78710938 100.73803711 C-73.78679687 100.42092773 -72.78648438 100.10381836 -71.75585938 99.77709961 C-69.28710937 99.11303711 -69.28710937 99.11303711 -66.28710938 99.11303711 C-66.72023438 98.1372168 -67.15335937 97.16139648 -67.59960938 96.15600586 C-68.16239648 94.87097531 -68.72488071 93.58581209 -69.28710938 92.30053711 C-69.57328125 91.65793945 -69.85945313 91.0153418 -70.15429688 90.35327148 C-71.42421978 87.43547242 -72.28710938 85.33037997 -72.28710938 82.11303711 C-75.91710937 83.10303711 -79.54710938 84.09303711 -83.28710938 85.11303711 C-82.60648437 86.49491211 -81.92585938 87.87678711 -81.22460938 89.30053711 C-79.84548883 92.36847545 -79.2592206 93.77139956 -79.53710938 97.17553711 C-79.90835938 98.13459961 -79.90835938 98.13459961 -80.28710938 99.11303711 C-81.60710937 99.44303711 -82.92710938 99.77303711 -84.28710938 100.11303711 C-85.12530095 98.4905377 -85.95752097 96.86495214 -86.78710938 95.23803711 C-87.48320312 93.8806543 -87.48320312 93.8806543 -88.19335938 92.49584961 C-89.28710938 90.11303711 -89.28710938 90.11303711 -89.28710938 88.11303711 C-97.0525142 90.11017427 -104.7646023 92.20229855 -112.41210938 94.61303711 C-113.0744458 94.820979 -113.73678223 95.0289209 -114.41918945 95.24316406 C-117.6254323 96.25497827 -120.82033454 97.29096534 -124.00976562 98.35522461 C-125.15316406 98.72905273 -126.2965625 99.10288086 -127.47460938 99.48803711 C-128.98087891 99.99463867 -128.98087891 99.99463867 -130.51757812 100.51147461 C-133.49625767 101.15846565 -135.37794428 100.93207079 -138.28710938 100.11303711 C-138.28710938 98.79303711 -138.28710938 97.47303711 -138.28710938 96.11303711 C-130.37183643 93.13093027 -122.38702561 90.54301198 -114.28710938 88.11303711 C-112.55260381 87.58481982 -110.81823873 87.0561411 -109.08398438 86.52709961 C-107.2559361 85.97215929 -105.42781109 85.41747171 -103.59960938 84.86303711 C-102.71345947 84.59249512 -101.82730957 84.32195312 -100.91430664 84.04321289 C-100.08471436 83.79297363 -99.25512207 83.54273438 -98.40039062 83.28491211 C-97.65571533 83.05900391 -96.91104004 82.8330957 -96.14379883 82.6003418 C-94.28710937 82.11303711 -94.28710937 82.11303711 -92.28710938 82.11303711 C-92.64804688 81.26999023 -93.00898437 80.42694336 -93.38085938 79.55834961 C-94.07695312 77.91479492 -94.07695312 77.91479492 -94.78710938 76.23803711 C-95.48320312 74.6022168 -95.48320312 74.6022168 -96.19335938 72.93334961 C-97.28710938 70.11303711 -97.28710938 70.11303711 -97.28710938 68.11303711 C-101.24710937 69.10303711 -105.20710938 70.09303711 -109.28710938 71.11303711 C-108.95710938 71.97928711 -108.62710938 72.84553711 -108.28710938 73.73803711 C-107.29979597 77.07021986 -107.12289963 79.66463249 -107.28710938 83.11303711 C-108.60710937 83.44303711 -109.92710938 83.77303711 -111.28710938 84.11303711 C-115.16210937 78.48803711 -115.16210937 78.48803711 -116.28710938 75.11303711 C-123.18789415 75.77311218 -129.57244882 77.9106187 -136.16210938 79.98803711 C-137.29519531 80.33995117 -138.42828125 80.69186523 -139.59570312 81.05444336 C-145.25985699 82.81997915 -150.8968478 84.62577745 -156.48071289 86.63232422 C-158.96920809 87.2945552 -160.88472598 86.96549573 -163.28710938 86.11303711 C-162.95710938 84.46303711 -162.62710938 82.81303711 -162.28710938 81.11303711 C-160.83304688 80.65864258 -160.83304688 80.65864258 -159.34960938 80.19506836 C-158.70950928 79.99502197 -158.06940918 79.79497559 -157.40991211 79.58886719 C-155.97977098 79.14197893 -154.54959448 78.69520387 -153.11938477 78.24853516 C-149.38149914 77.08098189 -145.64417702 75.91169445 -141.90820312 74.73803711 C-141.20630859 74.51784912 -140.50441406 74.29766113 -139.78125 74.07080078 C-138.44769383 73.65240228 -137.11434718 73.23333518 -135.78125 72.81347656 C-133.95193669 72.24002785 -132.11955107 71.67640915 -130.28710938 71.11303711 C-129.06121094 70.7353418 -127.8353125 70.35764648 -126.57226562 69.96850586 C-123.28710938 69.11303711 -123.28710938 69.11303711 -119.28710938 69.11303711 C-119.64804688 68.19780273 -120.00898437 67.28256836 -120.38085938 66.33959961 C-120.84492187 65.15108398 -121.30898437 63.96256836 -121.78710938 62.73803711 C-122.48320312 60.96299805 -122.48320312 60.96299805 -123.19335938 59.15209961 C-124.28710938 56.11303711 -124.28710938 56.11303711 -124.28710938 54.11303711 C-129.23710937 55.10303711 -129.23710937 55.10303711 -134.28710938 56.11303711 C-133.51367188 57.93834961 -133.51367188 57.93834961 -132.72460938 59.80053711 C-131.40077694 63.28332993 -131.04120052 65.48857499 -132.28710938 69.11303711 C-133.93710938 69.11303711 -135.58710938 69.11303711 -137.28710938 69.11303711 C-138.60710937 66.14303711 -139.92710937 63.17303711 -141.28710938 60.11303711 C-146.73712518 60.86353109 -151.89244731 62.33262627 -157.16210938 63.86303711 C-158.08233887 64.12673096 -159.00256836 64.3904248 -159.95068359 64.66210938 C-164.35896373 65.93453574 -168.74963879 67.24366092 -173.11523438 68.65600586 C-173.84500488 68.89158203 -174.57477539 69.1271582 -175.32666016 69.36987305 C-176.68718345 69.81393052 -178.04511056 70.26604672 -179.39990234 70.72729492 C-183.96039667 72.22194134 -183.96039667 72.22194134 -187.28710938 71.11303711 C-193.2229753 57.99550624 -192.55583797 37.07086458 -187.55664062 23.80444336 C-185.44739902 19.33285115 -183.10647205 15.17470471 -180.28710938 11.11303711 C-179.58585938 10.10241211 -178.88460937 9.09178711 -178.16210938 8.05053711 C-137.43044156 -37.43530014 -49.56271524 -15.63194909 0 0 Z " fill="#D3A575" transform="translate(190.287109375,108.886962890625)"/>
<path d="M0 0 C1 2 1 2 0.41430664 3.80908203 C0.08293701 4.53466309 -0.24843262 5.26024414 -0.58984375 6.0078125 C-0.95779053 6.8212915 -1.3257373 7.63477051 -1.70483398 8.47290039 C-2.11161377 9.34809326 -2.51839355 10.22328613 -2.9375 11.125 C-3.35136963 12.02790771 -3.76523926 12.93081543 -4.19165039 13.86108398 C-7.61895049 21.28897564 -11.18090921 28.64084618 -14.92578125 35.91357422 C-15.6792283 37.37697387 -16.42890666 38.84231711 -17.17578125 40.30908203 C-34.75100289 74.78301876 -34.75100289 74.78301876 -51.15234375 81.17578125 C-59.03917239 83.45852589 -66.55124054 84.33622646 -74.75 84.25 C-75.72026123 84.24105713 -76.69052246 84.23211426 -77.69018555 84.22290039 C-115.48564013 83.61527667 -157.52023889 65.87454483 -188 44 C-188.33 43.34 -188.66 42.68 -189 42 C-185.55421959 42.62176033 -182.36522538 43.49261618 -179.0703125 44.671875 C-150.58087036 54.64946561 -117.41897002 64.11978016 -88.375 50.6875 C-86.88977829 49.83698842 -85.42856192 48.94258385 -84 48 C-83.32066406 47.55527344 -82.64132812 47.11054688 -81.94140625 46.65234375 C-74.97710764 41.3442721 -71.14205041 33.51960277 -67 26 C-66.48228027 25.06317383 -65.96456055 24.12634766 -65.43115234 23.16113281 C-61.9201884 16.792312 -58.44640007 10.40396774 -55 4 C-54.06542969 4.144375 -53.13085938 4.28875 -52.16796875 4.4375 C-35.13775924 6.91374172 -15.67027024 8.71879698 0 0 Z " fill="#CE0C0B" transform="translate(415,256)"/>
<path d="M0 0 C2.47186455 2.96346786 3.66248361 5.54041689 4.6875 9.25 C4.93886719 10.14203125 5.19023438 11.0340625 5.44921875 11.953125 C5.63097656 12.62859375 5.81273437 13.3040625 6 14 C-1.1491573 16.82987476 -8.47104421 19.06028392 -15.81396484 21.32080078 C-18.04265462 22.01325275 -20.26589954 22.72117411 -22.48828125 23.43359375 C-23.57496094 23.77994873 -23.57496094 23.77994873 -24.68359375 24.13330078 C-26.0765424 24.57770252 -27.46851656 25.02517331 -28.859375 25.47607422 C-31.69979408 26.37713763 -33.99850334 27 -37 27 C-37.33 27.66 -37.66 28.32 -38 29 C-38.34227513 27.4811541 -38.67331214 25.95977467 -39 24.4375 C-39.2784375 23.16712891 -39.2784375 23.16712891 -39.5625 21.87109375 C-40.06867314 18.54933253 -40.06635491 15.35507021 -40 12 C-36.8980736 10.9929564 -33.79311902 9.99559195 -30.6875 9 C-29.80642578 8.71382812 -28.92535156 8.42765625 -28.01757812 8.1328125 C-26.74624023 7.72675781 -26.74624023 7.72675781 -25.44921875 7.3125 C-24.66893311 7.06113281 -23.88864746 6.80976563 -23.0847168 6.55078125 C-21 6 -21 6 -18 6 C-17.01 8.31 -16.02 10.62 -15 13 C-13.35 13 -11.7 13 -10 13 C-10.48578543 9.87709365 -10.9986012 7.00419641 -12 4 C-7.9811485 2.18757677 -4.38889325 0.66498383 0 0 Z " fill="#F6D888" transform="translate(40,148)"/>
<path d="M0 0 C0.33 0.66 0.66 1.32 1 2 C3.97 1.34 6.94 0.68 10 0 C11.0067004 2.26807204 12.00551766 4.53907754 13 6.8125 C13.28617188 7.45509766 13.57234375 8.09769531 13.8671875 8.75976562 C15.13711041 11.67756469 16 13.78265714 16 17 C13.39741676 17.83857688 10.79314353 18.67103344 8.1875 19.5 C7.08051758 19.85771484 7.08051758 19.85771484 5.95117188 20.22265625 C2.86744804 21.19940136 0.25504191 22 -3 22 C-3.41136629 14.12309743 -2.436168 7.49701701 0 0 Z " fill="#F6D888" transform="translate(3,132)"/>
<path d="M0 0 C1.0067004 2.26807204 2.00551766 4.53907754 3 6.8125 C3.28617188 7.45509766 3.57234375 8.09769531 3.8671875 8.75976562 C5.13711041 11.67756469 6 13.78265714 6 17 C4.5882217 17.53394179 3.17029756 18.05165104 1.75 18.5625 C0.96109375 18.85253906 0.1721875 19.14257812 -0.640625 19.44140625 C-3.33616754 20.07958933 -4.51997663 20.25805759 -7 19 C-8.51953125 16.41796875 -8.51953125 16.41796875 -9.8125 13.1875 C-10.25207031 12.12917969 -10.69164063 11.07085937 -11.14453125 9.98046875 C-12.37472321 5.69445749 -12.37472321 5.69445749 -11 3 C-9.2578125 1.953125 -9.2578125 1.953125 -7.125 1.25 C-6.42632812 1.00765625 -5.72765625 0.7653125 -5.0078125 0.515625 C-3 0 -3 0 0 0 Z " fill="#F5D888" transform="translate(32,126)"/>
<path d="M0 0 C4.19434579 7.95539139 4.19434579 7.95539139 3.5 11.6875 C3.005 12.450625 2.51 13.21375 2 14 C1.29875 15.093125 0.5975 16.18625 -0.125 17.3125 C-1.053125 18.6428125 -1.053125 18.6428125 -2 20 C-4.2890625 19.96484375 -4.2890625 19.96484375 -7 19 C-8.41126848 16.45671404 -9.41139448 14.26608751 -10.375 11.5625 C-10.64699219 10.86833984 -10.91898437 10.17417969 -11.19921875 9.45898438 C-11.87600215 7.66637604 -12.44616319 5.83432417 -13 4 C-12.67 3.34 -12.34 2.68 -12 2 C-7.70418473 0.73238238 -4.49055702 0 0 0 Z " fill="#F5D888" transform="translate(504,399)"/>
<path d="M0 0 C1.58203125 2.8359375 1.58203125 2.8359375 2.8125 6.375 C3.23144531 7.53773438 3.65039062 8.70046875 4.08203125 9.8984375 C5 13 5 13 5 16 C1.12315913 17.19287411 -1.91621923 18 -6 18 C-7.03275341 15.73392948 -8.05133551 13.46318061 -9.0625 11.1875 C-9.50432617 10.22360352 -9.50432617 10.22360352 -9.95507812 9.24023438 C-12.11328125 4.33984375 -12.11328125 4.33984375 -11 1 C-7.01775707 -0.81011042 -4.13592105 -1.58118941 0 0 Z " fill="#F5D788" transform="translate(136,187)"/>
<path d="M0 0 C0.83986084 1.93467942 1.67168027 3.87285129 2.5 5.8125 C2.9640625 6.89144531 3.428125 7.97039062 3.90625 9.08203125 C5 12 5 12 5 15 C1.04 15.99 -2.92 16.98 -7 18 C-12.22321429 6.75 -12.22321429 6.75 -13 3 C-8.36224637 1.11345615 -5.04994191 -0.21225675 0 0 Z " fill="#F5D788" transform="translate(85,157)"/>
<path d="M0 0 C6 11.73786408 6 11.73786408 6 16 C0.555 17.485 0.555 17.485 -5 19 C-6.00419637 16.5433053 -7.00350501 14.08481647 -8 11.625 C-8.28617187 10.92632812 -8.57234375 10.22765625 -8.8671875 9.5078125 C-11 4.2265625 -11 4.2265625 -11 2 C-7.17010894 0.19769832 -4.21878192 -0.19622241 0 0 Z " fill="#F5D788" transform="translate(451,369)"/>
<path d="M0 0 C0.50615298 1.26839526 1.00469099 2.53983102 1.5 3.8125 C1.7784375 4.52019531 2.056875 5.22789062 2.34375 5.95703125 C3 8 3 8 3 11 C-2.28 12.65 -7.56 14.3 -13 16 C-17 7.25 -17 7.25 -17 5 C-14.73117913 4.16080602 -12.46022973 3.32848276 -10.1875 2.5 C-9.54490234 2.26152344 -8.90230469 2.02304688 -8.24023438 1.77734375 C-5.35066261 0.72931254 -3.09923939 0 0 0 Z " fill="#F5D788" transform="translate(375,206)"/>
<path d="M0 0 C3.7221968 3.39133486 4.64392327 6.76518499 5.8125 11.5625 C4.39853098 12.07007862 2.98118271 12.56824925 1.5625 13.0625 C0.77359375 13.3409375 -0.0153125 13.619375 -0.828125 13.90625 C-3.1875 14.5625 -3.1875 14.5625 -7.1875 14.5625 C-8.02489781 12.4390984 -8.85730283 10.3137272 -9.6875 8.1875 C-10.38359375 6.41246094 -10.38359375 6.41246094 -11.09375 4.6015625 C-12.1875 1.5625 -12.1875 1.5625 -12.1875 -0.4375 C-7.5401788 -1.98660707 -4.5096912 -2.03378231 0 0 Z " fill="#F5D888" transform="translate(400.1875,342.4375)"/>
<path d="M0 0 C6 11.73786408 6 11.73786408 6 16 C2.7 16.66 -0.6 17.32 -4 18 C-10 6.2 -10 6.2 -10 1 C-6.52674819 -0.1577506 -3.63932552 -0.06866652 0 0 Z " fill="#F5D788" transform="translate(49,122)"/>
<path d="M0 0 C1.14648438 2.05151367 1.14648438 2.05151367 2 4 C-2.05270065 5.31320599 -6.10943082 6.61283628 -10.17041016 7.90014648 C-11.55082417 8.3398111 -12.93007623 8.78314158 -14.30810547 9.23022461 C-16.29098952 9.87283916 -18.27770105 10.50208296 -20.265625 11.12890625 C-22.05661621 11.70233765 -22.05661621 11.70233765 -23.88378906 12.28735352 C-26.83602006 12.96249942 -28.22907514 13.08257995 -31 12 C-31 10.68 -31 9.36 -31 8 C-27.04139861 5.36093241 -22.97218541 4.36932979 -18.43359375 3.0234375 C-16.31266566 2.39126098 -14.19863358 1.73467545 -12.09765625 1.0390625 C-11.24042969 0.75804687 -10.38320312 0.47703125 -9.5 0.1875 C-8.37078125 -0.19341797 -8.37078125 -0.19341797 -7.21875 -0.58203125 C-4.4454391 -1.10446834 -2.6638346 -0.93678183 0 0 Z " fill="#D4A675" transform="translate(164,244)"/>
<path d="M0 0 C3.99970765 2.65781439 7.19337257 5.47898161 9 10 C9 10.99 9 11.98 9 13 C5.04 13.99 1.08 14.98 -3 16 C-4.00460531 13.87717331 -5.00355602 11.75166979 -6 9.625 C-6.556875 8.44164062 -7.11375 7.25828125 -7.6875 6.0390625 C-9 3 -9 3 -9 1 C-5.85617726 0.06849697 -3.25667527 -0.53015644 0 0 Z " fill="#F5D788" transform="translate(73,139)"/>
<path d="M0 0 C0.83764268 1.95649397 1.66999059 3.91525556 2.5 5.875 C2.9640625 6.96554687 3.428125 8.05609375 3.90625 9.1796875 C5 12 5 12 5 14 C0.05 15.485 0.05 15.485 -5 17 C-6.00460531 14.87717331 -7.00355602 12.75166979 -8 10.625 C-8.556875 9.44164062 -9.11375 8.25828125 -9.6875 7.0390625 C-11 4 -11 4 -11 2 C-7.12315913 0.80712589 -4.08378077 0 0 0 Z " fill="#F5D788" transform="translate(477,385)"/>
<path d="M0 0 C0 0.33 0 0.66 0 1 C-0.969375 1.23074219 -1.93875 1.46148437 -2.9375 1.69921875 C-4.29198938 2.02731641 -5.64612936 2.35685841 -7 2.6875 C-7.71389893 2.86176514 -8.42779785 3.03603027 -9.16333008 3.21557617 C-15.09968765 4.69982796 -20.90795713 6.48586565 -26.68164062 8.51245117 C-30.50552386 9.7895453 -33.11980518 10.20931502 -37 9 C-36.73828125 7.09375 -36.73828125 7.09375 -36 5 C-34.35546875 4.09375 -34.35546875 4.09375 -32.1875 3.5 C-29.46082548 2.73137836 -26.87892588 1.94939413 -24.26171875 0.85546875 C-15.55575117 -2.6669728 -9.01446329 -1.8225964 0 0 Z " fill="#D4A575" transform="translate(329,339)"/>
<path d="M0 0 C0.83764268 1.95649397 1.66999059 3.91525556 2.5 5.875 C2.9640625 6.96554688 3.428125 8.05609375 3.90625 9.1796875 C5 12 5 12 5 14 C1.1389146 15.43668294 -1.896427 16.11185208 -6 16 C-6.83764268 14.04350603 -7.66999059 12.08474444 -8.5 10.125 C-8.9640625 9.03445312 -9.428125 7.94390625 -9.90625 6.8203125 C-11 4 -11 4 -11 2 C-7.12315913 0.80712589 -4.08378077 0 0 0 Z " fill="#F5D788" transform="translate(110,172)"/>
<path d="M0 0 C0.83764268 1.95649397 1.66999059 3.91525556 2.5 5.875 C2.9640625 6.96554688 3.428125 8.05609375 3.90625 9.1796875 C5 12 5 12 5 14 C0.05 15.485 0.05 15.485 -5 17 C-5.84266711 15.25447527 -6.67380038 13.5033792 -7.5 11.75 C-7.9640625 10.77546875 -8.428125 9.8009375 -8.90625 8.796875 C-10 6 -10 6 -10 2 C-3.375 0 -3.375 0 0 0 Z " fill="#F5D788" transform="translate(58,143)"/>
<path d="M0 0 C3.6498633 3.22872522 4.63538271 8.47063196 6 13 C4.73160474 13.50615298 3.46016898 14.00469099 2.1875 14.5 C1.47980469 14.7784375 0.77210938 15.056875 0.04296875 15.34375 C-2 16 -2 16 -5 16 C-6.65 11.38 -8.3 6.76 -10 2 C-3.58490566 -0.56603774 -3.58490566 -0.56603774 0 0 Z " fill="#F5D788" transform="translate(425,355)"/>
<path d="M0 0 C3.14292072 2.09528048 3.50856669 2.58783233 4.6875 5.9375 C5.06455078 6.97197266 5.06455078 6.97197266 5.44921875 8.02734375 C6 10 6 10 6 13 C4.5882217 13.53394179 3.17029756 14.05165104 1.75 14.5625 C0.96109375 14.85253906 0.1721875 15.14257812 -0.640625 15.44140625 C-3.22938704 16.05430852 -4.55256539 16.00682212 -7 15 C-8.39666922 12.53920185 -9.09037001 10.87415603 -8.796875 8.03515625 C-7.73799487 5.33085946 -6.29982308 4.39987644 -3.9375 2.75 C-3.20402344 2.22921875 -2.47054688 1.7084375 -1.71484375 1.171875 C-1.14894531 0.78515625 -0.58304688 0.3984375 0 0 Z " fill="#F6D98A" transform="translate(23,108)"/>
<path d="M0 0 C-0.60698743 4.12751449 -2.03810791 7.3321148 -4 11 C-5.41702513 10.85769192 -6.8336096 10.71099254 -8.25 10.5625 C-9.43335938 10.44068359 -9.43335938 10.44068359 -10.640625 10.31640625 C-12.82364639 10.02365007 -14.8773182 9.57935581 -17 9 C-17.33 7.35 -17.66 5.7 -18 4 C-16.3962669 3.35309078 -14.79199694 2.70751236 -13.1875 2.0625 C-11.84751953 1.52302734 -11.84751953 1.52302734 -10.48046875 0.97265625 C-6.38788938 -0.63215047 -4.27291907 -1.03935869 0 0 Z " fill="#F5D687" transform="translate(365,248)"/>
<path d="M0 0 C1.98 1.65 3.96 3.3 6 5 C2.21281952 7.09524531 -1.832602 8.37408232 -5.9375 9.6875 C-6.64068359 9.92533203 -7.34386719 10.16316406 -8.06835938 10.40820312 C-12.0752417 11.68875315 -14.94874548 12.30813502 -19 11 C-18.78515625 9.13671875 -18.78515625 9.13671875 -18 7 C-12.53354268 3.6434034 -6.30820489 2.46727444 0 2 C0 1.34 0 0.68 0 0 Z " fill="#D5A474" transform="translate(176,259)"/>
<path d="M0 0 C3.91338906 0.62279588 6.50588042 2.52292329 9.6875 4.8125 C11.14736328 5.84310547 11.14736328 5.84310547 12.63671875 6.89453125 C15 9 15 9 16 13 C12.7 13.66 9.4 14.32 6 15 C5.17988688 13.44148245 4.36923787 11.87798284 3.5625 10.3125 C3.11003906 9.44238281 2.65757813 8.57226562 2.19140625 7.67578125 C1.04008072 5.09001736 0.43679247 2.78643472 0 0 Z " fill="#F4D687" transform="translate(91,154)"/>
<path d="M0 0 C0.50615298 1.26839526 1.00469099 2.53983102 1.5 3.8125 C1.7784375 4.52019531 2.056875 5.22789062 2.34375 5.95703125 C3 8 3 8 3 11 C-0.3 11.66 -3.6 12.32 -7 13 C-10 5.375 -10 5.375 -10 2 C-6.38026598 0.68373308 -3.90432869 0 0 0 Z " fill="#F4D787" transform="translate(385,185)"/>
<path d="M0 0 C-0.60914159 3.76314135 -1.6879685 6.83503926 -3.375 10.25 C-3.79523438 11.12140625 -4.21546875 11.9928125 -4.6484375 12.890625 C-6 15 -6 15 -9 16 C-9.6708712 14.3767313 -10.33657029 12.75132422 -11 11.125 C-11.37125 10.22007812 -11.7425 9.31515625 -12.125 8.3828125 C-13 6 -13 6 -13 4 C-11.39850114 3.32694982 -9.79368971 2.66177773 -8.1875 2 C-7.29417969 1.62875 -6.40085937 1.2575 -5.48046875 0.875 C-3 0 -3 0 0 0 Z " fill="#F5D787" transform="translate(377,223)"/>
<path d="M0 0 C1.26026798 2.52053595 0.91874445 3.8542098 0.5625 6.625 C0.46066406 7.44226563 0.35882813 8.25953125 0.25390625 9.1015625 C0.17011719 9.72804687 0.08632813 10.35453125 0 11 C-1.98 11.33 -3.96 11.66 -6 12 C-6.50615298 10.73160474 -7.00469099 9.46016898 -7.5 8.1875 C-7.7784375 7.47980469 -8.056875 6.77210938 -8.34375 6.04296875 C-9 4 -9 4 -9 1 C-5.63579264 -0.58865348 -3.5299383 -1.5128307 0 0 Z " fill="#F5D788" transform="translate(394,165)"/>
<path d="M0 0 C-2.93163286 1.55403686 -5.83365224 2.69801632 -9 3.6875 C-9.845625 3.95949219 -10.69125 4.23148437 -11.5625 4.51171875 C-14.1232068 5.02468085 -15.55828998 4.84216387 -18 4 C-18 2.68 -18 1.36 -18 0 C-6.66242515 -5.11302395 -6.66242515 -5.11302395 0 0 Z " fill="#D5A675" transform="translate(201,281)"/>
<path d="M0 0 C0.99 2.97 1.98 5.94 3 9 C-0.87684087 10.19287411 -3.91621923 11 -8 11 C-8.66 9.02 -9.32 7.04 -10 5 C-8.71186658 4.16121545 -7.41936744 3.32913217 -6.125 2.5 C-5.40570313 2.0359375 -4.68640625 1.571875 -3.9453125 1.09375 C-2 0 -2 0 0 0 Z " fill="#F4D586" transform="translate(376,331)"/>
<path d="M0 0 C0.54527344 0.33515625 1.09054687 0.6703125 1.65234375 1.015625 C1.65234375 1.345625 1.65234375 1.675625 1.65234375 2.015625 C-0.59389324 2.71532182 -2.84482039 3.39997543 -5.09765625 4.078125 C-6.350625 4.46097656 -7.60359375 4.84382813 -8.89453125 5.23828125 C-12.02145705 5.94219328 -13.44231671 6.18216285 -16.34765625 5.015625 C-16.34765625 3.695625 -16.34765625 2.375625 -16.34765625 1.015625 C-10.04144188 -2.86053513 -6.6111472 -3.5711496 0 0 Z " fill="#D4A574" transform="translate(281.34765625,326.984375)"/>
<path d="M0 0 C5.47932789 1.54545146 10.11429181 4.15543212 15 7 C11.36383344 8.9789756 8.11574371 9.5251065 4 10 C2.68 6.7 1.36 3.4 0 0 Z " fill="#F4D587" transform="translate(484,386)"/>
<path d="M0 0 C5.08938811 1.59043379 8.87456643 4.7446951 13 8 C10.23776722 10.76223278 7.79293383 10.57856291 4 11 C3.32880451 9.5437455 2.66318193 8.08492133 2 6.625 C1.62875 5.81289062 1.2575 5.00078125 0.875 4.1640625 C0 2 0 2 0 0 Z " fill="#F4D687" transform="translate(117,172)"/>
<path d="M0 0 C1.38653128 0.70699367 2.76576607 1.42934952 4.125 2.1875 C4.125 2.5175 4.125 2.8475 4.125 3.1875 C-5.28502278 5.29911731 -5.28502278 5.29911731 -9.875 6.1875 C-10.205 4.5375 -10.535 2.8875 -10.875 1.1875 C-6.66132033 -1.83770592 -4.58804863 -2.0802053 0 0 Z " fill="#D5A675" transform="translate(250.875,312.8125)"/>
<path d="M0 0 C1.6796875 1.55078125 1.6796875 1.55078125 3 3 C-6.41002278 6.62870159 -6.41002278 6.62870159 -11 5 C-11 3.68 -11 2.36 -11 1 C-6.94405371 -1.02797315 -4.37353074 -1.23599782 0 0 Z " fill="#D4A575" transform="translate(219,294)"/>
<path d="M0 0 C0.66 0.33 1.32 0.66 2 1 C-0.9014742 4.02496544 -3.81895591 7.03324439 -6.75244141 10.02709961 C-7.74822727 11.04804798 -8.73948191 12.07343622 -9.72607422 13.10327148 C-11.14426497 14.58203823 -12.57793246 16.04412415 -14.015625 17.50390625 C-15.30388184 18.83143921 -15.30388184 18.83143921 -16.61816406 20.18579102 C-19 22 -19 22 -21.31152344 21.78100586 C-21.8687207 21.52327393 -22.42591797 21.26554199 -23 21 C-22.319375 20.67 -21.63875 20.34 -20.9375 20 C-18.32439309 18.22086338 -16.86721591 16.81375753 -14.875 14.4375 C-10.39645287 9.10495053 -5.20996222 4.59757968 0 0 Z " fill="#F79E5A" transform="translate(224,92)"/>
<path d="M0 0 C3.63 1.65 7.26 3.3 11 5 C8.4345406 7.5654594 6.52313332 7.54046087 3 8 C0 3.375 0 3.375 0 0 Z " fill="#F4D687" transform="translate(461,374)"/>
<path d="M0 0 C2.31 0 4.62 0 7 0 C6.67 1.32 6.34 2.64 6 4 C4.68 4 3.36 4 2 4 C1.34 2.68 0.68 1.36 0 0 Z " fill="#D49D6F" transform="translate(339,340)"/>
<path d="M0 0 C0.66 0.33 1.32 0.66 2 1 C1.34 2.65 0.68 4.3 0 6 C-0.66 6 -1.32 6 -2 6 C-2.33 4.35 -2.66 2.7 -3 1 C-2.01 0.67 -1.02 0.34 0 0 Z " fill="#F4D486" transform="translate(384,202)"/>
<path d="M0 0 C1.65 0.99 3.3 1.98 5 3 C4.67 4.98 4.34 6.96 4 9 C2.00902154 6.01353231 1.05875074 3.40312738 0 0 Z " fill="#F0CE83" transform="translate(144,190)"/>
<path d="M0 0 C2.97 1.98 2.97 1.98 6 4 C5.67 4.66 5.34 5.32 5 6 C3.68 5.67 2.36 5.34 1 5 C0.67 3.35 0.34 1.7 0 0 Z " fill="#F2D286" transform="translate(34,112)"/>
<path d="M0 0 C1.98 0.99 3.96 1.98 6 3 C5.34 3.66 4.68 4.32 4 5 C3.01 5 2.02 5 1 5 C0.67 3.35 0.34 1.7 0 0 Z " fill="#EFCE85" transform="translate(436,361)"/>
</svg>
